<mxfile host="app.diagrams.net" agent="Mozilla/5.0 (Windows NT 10.0; Win64; x64) AppleWebKit/537.36 (KHTML, like Gecko) Chrome/138.0.0.0 Safari/537.36" version="28.0.7">
  <diagram name="Page-1" id="H2kmklS6PIMlhU2_zKL0">
    <mxGraphModel dx="1747" dy="1002" grid="1" gridSize="10" guides="1" tooltips="1" connect="1" arrows="1" fold="1" page="1" pageScale="1" pageWidth="850" pageHeight="1100" math="0" shadow="0">
      <root>
        <mxCell id="0" />
        <mxCell id="1" parent="0" />
        <mxCell id="gFuwgAwN1bmNTYrLXnEJ-2" value="Plan" style="ellipse;whiteSpace=wrap;html=1;strokeColor=#181818;" parent="1" vertex="1">
          <mxGeometry x="348" y="200" width="120" height="80" as="geometry" />
        </mxCell>
        <mxCell id="gFuwgAwN1bmNTYrLXnEJ-3" value="Develop" style="ellipse;whiteSpace=wrap;html=1;" parent="1" vertex="1">
          <mxGeometry x="348" y="330" width="120" height="80" as="geometry" />
        </mxCell>
        <mxCell id="gFuwgAwN1bmNTYrLXnEJ-5" value="Text" style="ellipse;whiteSpace=wrap;html=1;" parent="1" vertex="1">
          <mxGeometry x="348" y="480" width="120" height="70" as="geometry" />
        </mxCell>
        <mxCell id="gFuwgAwN1bmNTYrLXnEJ-6" value="Release" style="ellipse;whiteSpace=wrap;html=1;" parent="1" vertex="1">
          <mxGeometry x="348" y="590" width="120" height="80" as="geometry" />
        </mxCell>
        <mxCell id="gFuwgAwN1bmNTYrLXnEJ-7" value="Operater" style="ellipse;whiteSpace=wrap;html=1;" parent="1" vertex="1">
          <mxGeometry x="348" y="730" width="112" height="60" as="geometry" />
        </mxCell>
        <mxCell id="gFuwgAwN1bmNTYrLXnEJ-8" value="Moniter" style="ellipse;whiteSpace=wrap;html=1;" parent="1" vertex="1">
          <mxGeometry x="348" y="840" width="120" height="80" as="geometry" />
        </mxCell>
        <mxCell id="gFuwgAwN1bmNTYrLXnEJ-10" value="" style="endArrow=classic;html=1;rounded=0;entryX=0.5;entryY=0;entryDx=0;entryDy=0;" parent="1" source="gFuwgAwN1bmNTYrLXnEJ-2" target="gFuwgAwN1bmNTYrLXnEJ-3" edge="1">
          <mxGeometry width="50" height="50" relative="1" as="geometry">
            <mxPoint x="470" y="270" as="sourcePoint" />
            <mxPoint x="440" y="340" as="targetPoint" />
            <Array as="points">
              <mxPoint x="408" y="310" />
            </Array>
          </mxGeometry>
        </mxCell>
        <mxCell id="gFuwgAwN1bmNTYrLXnEJ-17" value="" style="endArrow=classic;html=1;rounded=0;entryX=0.5;entryY=0;entryDx=0;entryDy=0;" parent="1" target="gFuwgAwN1bmNTYrLXnEJ-5" edge="1">
          <mxGeometry width="50" height="50" relative="1" as="geometry">
            <mxPoint x="410" y="470" as="sourcePoint" />
            <mxPoint x="520" y="410" as="targetPoint" />
            <Array as="points">
              <mxPoint x="410" y="410" />
            </Array>
          </mxGeometry>
        </mxCell>
        <mxCell id="gFuwgAwN1bmNTYrLXnEJ-18" value="" style="endArrow=classic;html=1;rounded=0;entryX=0.5;entryY=0;entryDx=0;entryDy=0;" parent="1" source="gFuwgAwN1bmNTYrLXnEJ-5" target="gFuwgAwN1bmNTYrLXnEJ-6" edge="1">
          <mxGeometry width="50" height="50" relative="1" as="geometry">
            <mxPoint x="410" y="560" as="sourcePoint" />
            <mxPoint x="468" y="550" as="targetPoint" />
          </mxGeometry>
        </mxCell>
        <mxCell id="gFuwgAwN1bmNTYrLXnEJ-19" value="" style="endArrow=classic;html=1;rounded=0;entryX=0.5;entryY=0;entryDx=0;entryDy=0;" parent="1" target="gFuwgAwN1bmNTYrLXnEJ-7" edge="1">
          <mxGeometry width="50" height="50" relative="1" as="geometry">
            <mxPoint x="408" y="700" as="sourcePoint" />
            <mxPoint x="460" y="650" as="targetPoint" />
          </mxGeometry>
        </mxCell>
        <mxCell id="gFuwgAwN1bmNTYrLXnEJ-21" value="" style="endArrow=classic;html=1;rounded=0;" parent="1" target="gFuwgAwN1bmNTYrLXnEJ-7" edge="1">
          <mxGeometry width="50" height="50" relative="1" as="geometry">
            <mxPoint x="410" y="720" as="sourcePoint" />
            <mxPoint x="440" y="670" as="targetPoint" />
            <Array as="points">
              <mxPoint x="410" y="710" />
              <mxPoint x="410" y="680" />
            </Array>
          </mxGeometry>
        </mxCell>
        <mxCell id="gFuwgAwN1bmNTYrLXnEJ-29" value="" style="endArrow=classic;html=1;rounded=0;exitX=0.5;exitY=1;exitDx=0;exitDy=0;entryX=0.5;entryY=0;entryDx=0;entryDy=0;" parent="1" source="gFuwgAwN1bmNTYrLXnEJ-7" target="gFuwgAwN1bmNTYrLXnEJ-8" edge="1">
          <mxGeometry width="50" height="50" relative="1" as="geometry">
            <mxPoint x="430" y="840" as="sourcePoint" />
            <mxPoint x="480" y="790" as="targetPoint" />
          </mxGeometry>
        </mxCell>
      </root>
    </mxGraphModel>
  </diagram>
</mxfile>
